include "include/hUGE.inc"

SECTION "Game BGM", ROMX

rockpaperscissorsgame::
db 7
dw order_cnt
dw order1, order2, order3, order4
dw duty_instruments, wave_instruments, noise_instruments
dw routines
dw waves

order_cnt: db 4
order1: dw P0,P0
order2: dw P1,P4
order3: dw P2,P2
order4: dw P3,P3

P0:
 dn C_4,7,$000
 dn ___,0,$000
 dn ___,0,$000
 dn ___,0,$000
 dn G_4,7,$000
 dn ___,0,$000
 dn ___,0,$000
 dn ___,0,$000
 dn G_5,7,$000
 dn ___,0,$000
 dn ___,0,$000
 dn ___,0,$000
 dn D#5,7,$000
 dn ___,0,$000
 dn ___,0,$000
 dn ___,0,$000
 dn C_4,7,$000
 dn ___,0,$000
 dn ___,0,$000
 dn ___,0,$000
 dn G_4,7,$000
 dn ___,0,$000
 dn ___,0,$000
 dn ___,0,$000
 dn G_5,7,$000
 dn ___,0,$000
 dn ___,0,$000
 dn ___,0,$000
 dn D#5,7,$000
 dn ___,0,$000
 dn ___,0,$000
 dn ___,0,$000
 dn C_4,7,$000
 dn ___,0,$000
 dn ___,0,$000
 dn ___,0,$000
 dn G_4,7,$000
 dn ___,0,$000
 dn ___,0,$000
 dn ___,0,$000
 dn G_5,7,$000
 dn ___,0,$000
 dn ___,0,$000
 dn ___,0,$000
 dn D#5,7,$000
 dn ___,0,$000
 dn ___,0,$000
 dn ___,0,$000
 dn C_4,7,$000
 dn ___,0,$000
 dn ___,0,$000
 dn ___,0,$000
 dn G_4,7,$000
 dn ___,0,$000
 dn ___,0,$000
 dn ___,0,$000
 dn G_5,7,$000
 dn ___,0,$000
 dn ___,0,$000
 dn ___,0,$000
 dn D#5,7,$000
 dn ___,0,$000
 dn ___,0,$000
 dn ___,0,$000

P1:
 dn D_5,5,$000
 dn ___,0,$000
 dn ___,0,$000
 dn ___,0,$000
 dn D_5,5,$000
 dn ___,0,$000
 dn ___,0,$000
 dn ___,0,$000
 dn D_5,5,$000
 dn ___,0,$000
 dn ___,0,$000
 dn ___,0,$000
 dn D_5,5,$000
 dn ___,0,$000
 dn ___,0,$000
 dn ___,0,$000
 dn D_5,5,$000
 dn ___,0,$000
 dn ___,0,$000
 dn ___,0,$000
 dn D_5,5,$000
 dn ___,0,$000
 dn ___,0,$000
 dn ___,0,$000
 dn D_5,5,$000
 dn ___,0,$000
 dn ___,0,$000
 dn ___,0,$000
 dn D_5,5,$000
 dn ___,0,$000
 dn ___,0,$000
 dn ___,0,$000
 dn D_5,5,$000
 dn ___,0,$000
 dn ___,0,$000
 dn ___,0,$000
 dn D_5,5,$000
 dn ___,0,$000
 dn ___,0,$000
 dn ___,0,$000
 dn D_5,5,$000
 dn ___,0,$000
 dn ___,0,$000
 dn ___,0,$000
 dn D_5,5,$000
 dn ___,0,$000
 dn ___,0,$000
 dn ___,0,$000
 dn D_5,5,$000
 dn ___,0,$000
 dn ___,0,$000
 dn ___,0,$000
 dn D_5,5,$000
 dn ___,0,$000
 dn ___,0,$000
 dn ___,0,$000
 dn D_5,5,$000
 dn ___,0,$000
 dn ___,0,$000
 dn ___,0,$000
 dn D_5,5,$000
 dn ___,0,$000
 dn ___,0,$000
 dn ___,0,$000

P2:
 dn ___,0,$E00
 dn ___,0,$000
 dn ___,0,$000
 dn ___,0,$000
 dn ___,0,$000
 dn ___,0,$000
 dn ___,0,$000
 dn ___,0,$000
 dn ___,0,$000
 dn ___,0,$000
 dn ___,0,$000
 dn ___,0,$000
 dn ___,0,$000
 dn ___,0,$000
 dn ___,0,$000
 dn ___,0,$000
 dn ___,0,$000
 dn ___,0,$000
 dn ___,0,$000
 dn ___,0,$000
 dn ___,0,$000
 dn ___,0,$000
 dn ___,0,$000
 dn ___,0,$000
 dn ___,0,$000
 dn ___,0,$000
 dn ___,0,$000
 dn ___,0,$000
 dn ___,0,$000
 dn ___,0,$000
 dn ___,0,$000
 dn ___,0,$000
 dn ___,0,$000
 dn ___,0,$000
 dn ___,0,$000
 dn ___,0,$000
 dn ___,0,$000
 dn ___,0,$000
 dn ___,0,$000
 dn ___,0,$000
 dn ___,0,$000
 dn ___,0,$000
 dn ___,0,$000
 dn ___,0,$000
 dn ___,0,$000
 dn ___,0,$000
 dn ___,0,$000
 dn ___,0,$000
 dn ___,0,$000
 dn ___,0,$000
 dn ___,0,$000
 dn ___,0,$000
 dn ___,0,$000
 dn ___,0,$000
 dn ___,0,$000
 dn ___,0,$000
 dn ___,0,$000
 dn ___,0,$000
 dn ___,0,$000
 dn ___,0,$000
 dn ___,0,$000
 dn ___,0,$000
 dn ___,0,$000
 dn ___,0,$000

P3:
 dn ___,0,$E00
 dn ___,0,$000
 dn ___,0,$000
 dn ___,0,$000
 dn ___,0,$000
 dn ___,0,$000
 dn ___,0,$000
 dn ___,0,$000
 dn ___,0,$000
 dn ___,0,$000
 dn ___,0,$000
 dn ___,0,$000
 dn ___,0,$000
 dn ___,0,$000
 dn ___,0,$000
 dn ___,0,$000
 dn ___,0,$000
 dn ___,0,$000
 dn ___,0,$000
 dn ___,0,$000
 dn ___,0,$000
 dn ___,0,$000
 dn ___,0,$000
 dn ___,0,$000
 dn ___,0,$000
 dn ___,0,$000
 dn ___,0,$000
 dn ___,0,$000
 dn ___,0,$000
 dn ___,0,$000
 dn ___,0,$000
 dn ___,0,$000
 dn ___,0,$000
 dn ___,0,$000
 dn ___,0,$000
 dn ___,0,$000
 dn ___,0,$000
 dn ___,0,$000
 dn ___,0,$000
 dn ___,0,$000
 dn ___,0,$000
 dn ___,0,$000
 dn ___,0,$000
 dn ___,0,$000
 dn ___,0,$000
 dn ___,0,$000
 dn ___,0,$000
 dn ___,0,$000
 dn ___,0,$000
 dn ___,0,$000
 dn ___,0,$000
 dn ___,0,$000
 dn ___,0,$000
 dn ___,0,$000
 dn ___,0,$000
 dn ___,0,$000
 dn ___,0,$000
 dn ___,0,$000
 dn ___,0,$000
 dn ___,0,$000
 dn ___,0,$000
 dn ___,0,$000
 dn ___,0,$000
 dn ___,0,$000

P4:
 dn C_7,6,$000
 dn ___,0,$000
 dn ___,0,$000
 dn ___,0,$000
 dn A#6,6,$000
 dn ___,0,$000
 dn A_6,6,$000
 dn ___,0,$000
 dn G_6,6,$000
 dn ___,0,$000
 dn ___,0,$000
 dn ___,0,$000
 dn F_6,6,$000
 dn ___,0,$000
 dn D#6,6,$000
 dn ___,0,$000
 dn D_6,6,$000
 dn ___,0,$000
 dn D#6,6,$000
 dn ___,0,$000
 dn F_6,6,$000
 dn ___,0,$000
 dn D#6,6,$000
 dn ___,0,$000
 dn G_6,6,$000
 dn ___,0,$000
 dn ___,0,$000
 dn ___,0,$000
 dn F_6,6,$000
 dn ___,0,$000
 dn D#6,6,$000
 dn ___,0,$000
 dn D_6,6,$000
 dn ___,0,$000
 dn D#6,6,$000
 dn ___,0,$000
 dn C_6,6,$000
 dn ___,0,$000
 dn C_5,6,$000
 dn ___,0,$000
 dn D_6,6,$000
 dn ___,0,$000
 dn ___,0,$000
 dn ___,0,$000
 dn D#6,6,$000
 dn ___,0,$000
 dn ___,0,$000
 dn ___,0,$000
 dn D_5,5,$000
 dn ___,0,$000
 dn ___,0,$000
 dn ___,0,$000
 dn D_5,5,$000
 dn ___,0,$000
 dn ___,0,$000
 dn ___,0,$000
 dn D_5,5,$000
 dn ___,0,$000
 dn ___,0,$000
 dn ___,0,$000
 dn D_5,5,$000
 dn ___,0,$000
 dn ___,0,$000
 dn ___,0,$000

duty_instruments:
itSquareinst1: db 8,0,240,128
itSquareinst2: db 8,64,240,128
itSquareinst3: db 8,128,240,128
itSquareinst4: db 8,192,240,128
itSquareinst5: db 8,0,241,128
itSquareinst6: db 8,64,242,128
itSquareinst7: db 8,128,241,128
itSquareinst8: db 8,192,241,128
itSquareinst9: db 8,128,240,128
itSquareinst10: db 8,128,240,128
itSquareinst11: db 8,128,240,128
itSquareinst12: db 8,128,240,128
itSquareinst13: db 8,128,240,128
itSquareinst14: db 8,128,240,128
itSquareinst15: db 8,128,240,128


wave_instruments:
itWaveinst1: db 0,32,0,128
itWaveinst2: db 0,32,1,128
itWaveinst3: db 0,32,2,128
itWaveinst4: db 0,32,3,128
itWaveinst5: db 0,32,4,128
itWaveinst6: db 112,32,5,128
itWaveinst7: db 0,32,6,128
itWaveinst8: db 0,32,7,128
itWaveinst9: db 0,32,8,128
itWaveinst10: db 0,32,9,128
itWaveinst11: db 0,32,10,128
itWaveinst12: db 0,32,11,128
itWaveinst13: db 0,32,12,128
itWaveinst14: db 0,32,13,128
itWaveinst15: db 0,32,14,128


noise_instruments:
itNoiseinst1: db 240,0,0,0,0,0,0,0
itNoiseinst2: db 240,0,0,0,0,0,0,0
itNoiseinst3: db 240,0,0,0,0,0,0,0
itNoiseinst4: db 240,0,0,0,0,0,0,0
itNoiseinst5: db 240,0,0,0,0,0,0,0
itNoiseinst6: db 240,0,0,0,0,0,0,0
itNoiseinst7: db 240,0,0,0,0,0,0,0
itNoiseinst8: db 240,0,0,0,0,0,0,0
itNoiseinst9: db 240,0,0,0,0,0,0,0
itNoiseinst10: db 240,0,0,0,0,0,0,0
itNoiseinst11: db 240,0,0,0,0,0,0,0
itNoiseinst12: db 240,0,0,0,0,0,0,0
itNoiseinst13: db 240,0,0,0,0,0,0,0
itNoiseinst14: db 240,0,0,0,0,0,0,0
itNoiseinst15: db 240,0,0,0,0,0,0,0


routines:
__hUGE_Routine_0:

__end_hUGE_Routine_0:
ret

__hUGE_Routine_1:

__end_hUGE_Routine_1:
ret

__hUGE_Routine_2:

__end_hUGE_Routine_2:
ret

__hUGE_Routine_3:

__end_hUGE_Routine_3:
ret

__hUGE_Routine_4:

__end_hUGE_Routine_4:
ret

__hUGE_Routine_5:

__end_hUGE_Routine_5:
ret

__hUGE_Routine_6:

__end_hUGE_Routine_6:
ret

__hUGE_Routine_7:

__end_hUGE_Routine_7:
ret

__hUGE_Routine_8:

__end_hUGE_Routine_8:
ret

__hUGE_Routine_9:

__end_hUGE_Routine_9:
ret

__hUGE_Routine_10:

__end_hUGE_Routine_10:
ret

__hUGE_Routine_11:

__end_hUGE_Routine_11:
ret

__hUGE_Routine_12:

__end_hUGE_Routine_12:
ret

__hUGE_Routine_13:

__end_hUGE_Routine_13:
ret

__hUGE_Routine_14:

__end_hUGE_Routine_14:
ret

__hUGE_Routine_15:

__end_hUGE_Routine_15:
ret

waves:
wave0: db 0,0,255,255,255,255,255,255,255,255,255,255,255,255,255,255
wave1: db 0,0,0,0,255,255,255,255,255,255,255,255,255,255,255,255
wave2: db 0,0,0,0,0,0,0,0,255,255,255,255,255,255,255,255
wave3: db 0,0,0,0,0,0,0,0,0,0,0,0,255,255,255,255
wave4: db 0,1,18,35,52,69,86,103,120,137,154,171,188,205,222,239
wave5: db 254,220,186,152,118,84,50,16,18,52,86,120,154,188,222,255
wave6: db 122,205,219,117,33,19,104,189,220,151,65,1,71,156,221,184
wave7: db 15,15,15,15,15,15,15,15,15,15,15,15,15,15,15,15
wave8: db 254,252,250,248,246,244,242,240,242,244,246,248,250,252,254,255
wave9: db 254,221,204,187,170,153,136,119,138,189,241,36,87,138,189,238
wave10: db 132,17,97,237,87,71,90,173,206,163,23,121,221,32,3,71
wave11: db 219,41,133,162,81,174,87,72,76,41,227,115,43,177,117,81
wave12: db 120,69,81,178,113,186,163,180,206,221,148,209,55,168,185,133
wave13: db 76,232,224,12,136,198,188,203,141,81,165,42,4,53,204,226
wave14: db 48,212,166,230,184,16,82,0,70,122,176,210,10,108,75,53
wave15: db 144,162,65,237,77,1,2,153,187,162,41,157,6,217,188,32

